<svg width="359" height="339" viewBox="0 0 359 339" fill="none" xmlns="http://www.w3.org/2000/svg">
<path d="M337.5 170.674C337.5 172.58 336.432 174.512 334.236 176.451C332.041 178.388 328.775 180.28 324.523 182.096C316.021 185.726 303.689 189.007 288.412 191.766C257.867 197.283 215.648 200.698 169 200.698C122.352 200.698 80.1335 197.283 49.5878 191.766C34.3109 189.007 21.9786 185.726 13.4772 182.096C9.22456 180.28 5.95889 178.388 3.76435 176.451C1.5675 174.512 0.5 172.58 0.5 170.674C0.5 168.769 1.5675 166.837 3.76435 164.898C5.95889 162.961 9.22456 161.069 13.4772 159.253C21.9786 155.623 34.3109 152.342 49.5878 149.583C80.1335 144.066 122.352 140.651 169 140.651C215.648 140.651 257.867 144.066 288.412 149.583C303.689 152.342 316.021 155.623 324.523 159.253C328.775 161.069 332.041 162.961 334.236 164.898C336.432 166.837 337.5 168.769 337.5 170.674Z" stroke="black"/>
<path d="M337.5 192.17C337.5 194.075 336.432 196.007 334.236 197.946C332.041 199.883 328.775 201.775 324.523 203.591C316.021 207.221 303.689 210.502 288.412 213.261C257.867 218.778 215.648 222.193 169 222.193C122.352 222.193 80.1335 218.778 49.5878 213.261C34.3109 210.502 21.9786 207.221 13.4772 203.591C9.22456 201.775 5.95889 199.883 3.76435 197.946C1.5675 196.007 0.5 194.075 0.5 192.17C0.5 190.264 1.5675 188.332 3.76435 186.393C5.95889 184.456 9.22456 182.564 13.4772 180.748C21.9786 177.118 34.3109 173.837 49.5878 171.078C80.1335 165.561 122.352 162.146 169 162.146C215.648 162.146 257.867 165.561 288.412 171.078C303.689 173.837 316.021 177.118 324.523 180.748C328.775 182.564 332.041 184.456 334.236 186.393C336.432 188.332 337.5 190.264 337.5 192.17Z" stroke="black"/>
<path d="M337.5 213.665C337.5 215.571 336.432 217.503 334.236 219.442C332.041 221.379 328.775 223.271 324.523 225.087C316.021 228.717 303.689 231.997 288.412 234.757C257.867 240.274 215.648 243.689 169 243.689C122.352 243.689 80.1335 240.274 49.5878 234.757C34.3109 231.997 21.9786 228.717 13.4772 225.087C9.22456 223.271 5.95889 221.379 3.76435 219.442C1.5675 217.503 0.5 215.571 0.5 213.665C0.5 211.76 1.5675 209.828 3.76435 207.889C5.95889 205.952 9.22456 204.06 13.4772 202.244C21.9786 198.614 34.3109 195.333 49.5878 192.574C80.1335 187.057 122.352 183.642 169 183.642C215.648 183.642 257.867 187.057 288.412 192.574C303.689 195.333 316.021 198.614 324.523 202.244C328.775 204.06 332.041 205.952 334.236 207.889C336.432 209.828 337.5 211.76 337.5 213.665Z" stroke="black"/>
<path d="M252.346 57.3162L252.518 58.1145L253.151 57.5982L300.225 19.191L272.355 69.4358L271.884 70.2843L272.849 70.1752L336.903 62.9264L280.204 89.3981L279.234 89.8512L280.204 90.3042L336.903 116.776L272.849 109.527L271.884 109.418L272.355 110.267L300.225 160.511L253.151 122.104L252.518 121.588L252.346 122.386L240.5 177.33L228.654 122.386L228.482 121.588L227.849 122.104L180.775 160.511L208.645 110.267L209.116 109.418L208.151 109.527L144.097 116.776L200.796 90.3042L201.766 89.8512L200.796 89.3981L144.097 62.9264L208.151 70.1752L209.116 70.2843L208.645 69.4358L180.775 19.191L227.849 57.5982L228.482 58.1145L228.654 57.3162L240.5 2.37242L252.346 57.3162Z" stroke="black"/>
<path d="M277 152.188L294.789 190.932L341.11 178.734L316.972 214.849L356.944 238.383L309.055 244.673L312.578 286.217L277 257.946L241.422 286.217L244.945 244.673L197.056 238.383L237.028 214.849L212.89 178.734L259.211 190.932L277 152.188Z" fill="#D9D9D9"/>
<path d="M112.194 263.193L135.134 226.992L158.258 263.193L200.269 282.996L158.258 302.799L135.134 339L112.194 302.799L70 282.996L112.194 263.193Z" fill="#B9FF66"/>
<path d="M214.5 160.356C214.5 189.691 186.815 213.595 152.5 213.595C118.185 213.595 90.5 189.691 90.5 160.356C90.5 131.022 118.185 107.118 152.5 107.118C186.815 107.118 214.5 131.022 214.5 160.356Z" fill="black" stroke="black"/>
<ellipse cx="132" cy="148.749" rx="10" ry="17.1964" fill="white"/>
<ellipse cx="173" cy="148.749" rx="10" ry="17.1964" fill="white"/>
</svg>
