<svg width="137" height="48" viewBox="0 0 137 48" fill="none" xmlns="http://www.w3.org/2000/svg">
<rect width="137" height="48" fill="#BDBDBD"/>
<rect width="1440" height="8356" transform="translate(-535 -783)" fill="white"/>
<g clip-path="url(#clip0_25_145)">
<g style="mix-blend-mode:luminosity" clip-path="url(#clip1_25_145)" filter="url(#filter0_d_25_145)">
<rect width="128.626" height="48" transform="translate(4.29297)" fill="white"/>
<path d="M18.1807 13.1064V22.1942H8.76376V13.1064H4.29297V34.7997H8.76376V26.0071H18.1807V34.7997H22.6515V13.1064H18.1807Z" fill="#33475B"/>
<path d="M36.9597 27.7869C36.9597 28.6563 36.57 29.4901 35.8764 30.1049C35.1828 30.7196 34.242 31.065 33.2611 31.065C32.2801 31.065 31.3394 30.7196 30.6457 30.1049C29.9521 29.4901 29.5624 28.6563 29.5624 27.7869V18.4953H25.3216V27.7869C25.3216 29.6513 26.1573 31.4394 27.6448 32.7578C29.1323 34.0761 31.1498 34.8168 33.2534 34.8168C35.357 34.8168 37.3745 34.0761 38.862 32.7578C40.3495 31.4394 41.1852 29.6513 41.1852 27.7869V18.4953H36.9597V27.7869Z" fill="#33475B"/>
<path d="M68.3811 19.4529C68.3811 17.5484 69.8027 16.9446 71.3601 16.9446C72.6153 16.9446 74.2735 17.7911 75.3578 18.8181L78.1353 15.9176C76.7487 14.2558 73.9362 13.1065 71.634 13.1065C67.0339 13.1065 63.7066 15.4944 63.7066 19.4529C63.7066 26.7973 73.8354 24.4676 73.8354 28.5775C73.8354 29.8453 72.4466 30.9655 70.8563 30.9655C68.3482 30.9655 67.5356 29.8783 66.3834 28.729L63.3013 31.5693C65.2728 33.7145 67.7042 34.8036 70.6176 34.8036C74.9876 34.8036 78.5033 32.3866 78.5033 28.6086C78.5033 20.4547 68.3745 22.9882 68.3745 19.4529" fill="#33475B"/>
<path d="M131.042 31.3341C128.536 31.3341 127.824 30.3731 127.824 28.9015V22.3881H131.719V19.0877H127.824V14.7331L123.525 16.4435V29.7111C123.525 33.1047 126.166 34.815 129.789 34.815C130.358 34.8242 130.925 34.7839 131.485 34.6947L132.534 31.272C132.061 31.3011 131.518 31.3302 131.042 31.3302" fill="#33475B"/>
<path d="M53.1025 18.6049C51.0018 18.6049 49.5363 19.1446 48.1191 20.3774V13.2369H43.8717V26.4715C43.8717 31.4259 47.9132 34.8195 52.4541 34.8195C57.4922 34.8195 61.9236 31.3658 61.9236 26.7141C61.9236 22.1208 57.8449 18.6068 53.1025 18.6068V18.6049ZM53.0762 31.0318C52.1231 31.0318 51.1913 30.7813 50.3988 30.312C49.6063 29.8427 48.9887 29.1757 48.6239 28.3952C48.2592 27.6148 48.1638 26.756 48.3497 25.9275C48.5356 25.099 48.9946 24.3379 49.6686 23.7406C50.3425 23.1433 51.2012 22.7365 52.136 22.5717C53.0708 22.4069 54.0398 22.4915 54.9204 22.8148C55.8009 23.138 56.5536 23.6855 57.0831 24.3878C57.6126 25.0902 57.8952 25.916 57.8952 26.7607C57.8952 27.8935 57.3875 28.9799 56.4838 29.7809C55.58 30.5818 54.3543 31.0318 53.0762 31.0318Z" fill="#33475B"/>
<path d="M99.2208 26.5153C99.2208 21.8559 94.7982 18.4099 89.7513 18.4099C85.2104 18.4099 81.169 21.8035 81.169 26.758V40.0003H85.4163V32.8501C86.8314 34.0809 88.299 34.6226 90.3975 34.6226C95.1399 34.6226 99.2186 31.1106 99.2186 26.5153H99.2208ZM95.1991 26.4687C95.1991 27.3134 94.9164 28.1392 94.3869 28.8416C93.8574 29.544 93.1047 30.0914 92.2242 30.4147C91.3436 30.7379 90.3746 30.8225 89.4398 30.6577C88.505 30.4929 87.6464 30.0861 86.9724 29.4888C86.2984 28.8915 85.8395 28.1304 85.6535 27.3019C85.4676 26.4734 85.563 25.6146 85.9277 24.8342C86.2925 24.0538 86.9102 23.3867 87.7027 22.9174C88.4952 22.4481 89.4269 22.1976 90.38 22.1976C91.6581 22.1976 92.8838 22.6476 93.7876 23.4486C94.6913 24.2495 95.1991 25.3359 95.1991 26.4687Z" fill="#33475B"/>
<path d="M112.9 18.3496V14.6066C113.458 14.3756 113.93 14.0088 114.262 13.5489C114.594 13.089 114.772 12.555 114.775 12.009V11.9216C114.772 11.1587 114.429 10.4276 113.821 9.88807C113.212 9.34858 112.387 9.04459 111.526 9.04254H111.428C110.567 9.04459 109.742 9.34858 109.133 9.88807C108.525 10.4276 108.182 11.1587 108.179 11.9216V12.009C108.182 12.555 108.36 13.089 108.692 13.5489C109.024 14.0088 109.496 14.3756 110.054 14.6066V18.3496C108.45 18.5671 106.938 19.1565 105.673 20.0581L94.0768 12.0614C94.1594 11.7976 94.2036 11.5256 94.2083 11.2519C94.2091 10.6095 93.9951 9.98128 93.5931 9.44673C93.1911 8.91217 92.6194 8.49527 91.9501 8.24873C91.2808 8.00219 90.544 7.93708 89.8329 8.06166C89.1219 8.18623 88.4685 8.49487 87.9554 8.94857C87.4422 9.40226 87.0924 9.98063 86.9502 10.6105C86.8079 11.2404 86.8796 11.8936 87.1562 12.4873C87.4328 13.0811 87.9018 13.5889 88.504 13.9464C89.1061 14.3039 89.8144 14.4952 90.5392 14.496C91.1759 14.4939 91.8006 14.3432 92.3507 14.0591L103.752 21.9257C102.725 23.2989 102.19 24.9146 102.215 26.5619C102.24 28.2091 102.826 29.8113 103.895 31.1591L100.425 34.2343C100.146 34.1557 99.8563 34.1138 99.564 34.11C98.9683 34.11 98.386 34.2666 97.8907 34.5599C97.3954 34.8532 97.0093 35.2701 96.7814 35.7579C96.5534 36.2457 96.4938 36.7824 96.61 37.3002C96.7262 37.818 97.013 38.2937 97.4343 38.667C97.8555 39.0403 98.3922 39.2946 98.9764 39.3976C99.5607 39.5006 100.166 39.4477 100.717 39.2457C101.267 39.0436 101.737 38.7015 102.068 38.2625C102.399 37.8235 102.576 37.3074 102.576 36.7794C102.572 36.5204 102.525 36.2633 102.436 36.0165L105.868 32.9743C106.989 33.7328 108.29 34.2544 109.673 34.4993C111.055 34.7441 112.483 34.7058 113.846 34.3871C115.209 34.0685 116.472 33.478 117.539 32.6607C118.606 31.8434 119.447 30.8209 120 29.6713C120.553 28.5217 120.802 27.2754 120.728 26.0275C120.655 24.7796 120.26 23.5631 119.575 22.4709C118.89 21.3786 117.933 20.4395 116.776 19.7253C115.619 19.0111 114.293 18.5405 112.9 18.3496V18.3496ZM111.478 30.6621C110.539 30.6621 109.621 30.4152 108.84 29.9527C108.059 29.4902 107.45 28.8329 107.091 28.0638C106.731 27.2947 106.637 26.4484 106.82 25.632C107.004 24.8155 107.456 24.0655 108.12 23.4769C108.784 22.8883 109.63 22.4874 110.552 22.325C111.473 22.1626 112.428 22.2459 113.295 22.5645C114.163 22.8831 114.905 23.4225 115.427 24.1147C115.949 24.8069 116.227 25.6206 116.227 26.4531C116.227 27.5694 115.727 28.6399 114.836 29.4293C113.946 30.2186 112.738 30.6621 111.478 30.6621" fill="#FF7A59"/>
</g>
</g>
<defs>
<filter id="filter0_d_25_145" x="0.292969" y="0" width="136.627" height="56" filterUnits="userSpaceOnUse" color-interpolation-filters="sRGB">
<feFlood flood-opacity="0" result="BackgroundImageFix"/>
<feColorMatrix in="SourceAlpha" type="matrix" values="0 0 0 0 0 0 0 0 0 0 0 0 0 0 0 0 0 0 127 0" result="hardAlpha"/>
<feOffset dy="4"/>
<feGaussianBlur stdDeviation="2"/>
<feComposite in2="hardAlpha" operator="out"/>
<feColorMatrix type="matrix" values="0 0 0 0 0 0 0 0 0 0 0 0 0 0 0 0 0 0 0.25 0"/>
<feBlend mode="normal" in2="BackgroundImageFix" result="effect1_dropShadow_25_145"/>
<feBlend mode="normal" in="SourceGraphic" in2="effect1_dropShadow_25_145" result="shape"/>
</filter>
<clipPath id="clip0_25_145">
<rect width="1440" height="48" fill="white" transform="translate(-538)"/>
</clipPath>
<clipPath id="clip1_25_145">
<rect width="128.626" height="48" fill="white" transform="translate(4.29297)"/>
</clipPath>
</defs>
</svg>
