<svg xmlns="http://www.w3.org/2000/svg" version="1.1" viewBox="-5.0 -10.0 110.0 135.0"><path d="m50.305 84.957c-0.42578 0.003907-0.79688-0.28125-0.90625-0.6875l-6.1172-22.195 0.003906-0.003907c-0.71094-2.5938-2.7617-4.6055-5.3711-5.2695l-22.16-5.6016c-0.41406-0.10156-0.70703-0.47266-0.71484-0.89844-0.003906-0.42578 0.28125-0.80078 0.69141-0.91406l22.195-6.1172 0.003907 0.003907c2.5898-0.71094 4.6016-2.7539 5.2695-5.3594l5.6016-22.164v0.003906c0.10156-0.41406 0.47266-0.70703 0.89844-0.71484 0.42578-0.003906 0.80078 0.28125 0.91406 0.69141l6.1172 22.195-0.003907 0.003907c0.71094 2.5898 2.7539 4.6016 5.3594 5.2695l22.164 5.6016h-0.003906c0.41406 0.10547 0.70312 0.48047 0.70312 0.90625s-0.28906 0.79688-0.70312 0.90625l-22.195 6.1172v-0.003907c-2.582 0.71484-4.5859 2.7578-5.25 5.3594l-5.6016 22.164v-0.003906c-0.097657 0.41797-0.47266 0.71094-0.89844 0.71094zm33.648-35.004"/></svg>